<?xml version="1.0" encoding="UTF-8"?>
<svg version="1.1" xmlns="http://www.w3.org/2000/svg" width="200" height="200">
<path d="M0 0 C0.02716824 2.54173977 0.04691969 5.08318415 0.0625 7.625 C0.07087891 8.33785156 0.07925781 9.05070312 0.08789062 9.78515625 C0.10336456 13.15847389 0.00870216 15.96335471 -0.77734375 19.2734375 C-0.85082031 20.17320313 -0.92429688 21.07296875 -1 22 C0.76231636 24.20164057 0.76231636 24.20164057 3.375 26 C15.50508233 36.12257922 22.95851243 51.64735565 24.7890625 67.20703125 C25.3364924 77.05063182 24.59543458 86.49049788 22 96 C22.53206055 96.30139893 23.06412109 96.60279785 23.61230469 96.91333008 C32.59312157 102.0832235 39.3608589 108.81509618 42.578125 118.79296875 C44.38961496 128.26974495 43.72271163 138.50973191 39 147 C33.23411537 155.16408443 25.95466906 161.09936341 16 163 C11.81554877 163.29963738 7.64014852 163.29376751 3.44628906 163.29052734 C1.56931335 163.30060318 1.56931335 163.30060318 -0.34558105 163.31088257 C-3.76322613 163.32658265 -7.18062809 163.33323513 -10.59829235 163.33451414 C-12.73869798 163.33594038 -14.87907848 163.34021894 -17.01947784 163.34550858 C-24.50160833 163.36398808 -31.98366777 163.37218199 -39.46582031 163.37060547 C-46.41581298 163.36940533 -53.36549448 163.39048772 -60.31540847 163.4220928 C-66.30209859 163.44833729 -72.2886876 163.45896933 -78.27543473 163.45769465 C-81.84222007 163.45718732 -85.40872873 163.46274236 -88.97545624 163.48405075 C-92.96008698 163.50720772 -96.94403091 163.49786264 -100.92871094 163.48583984 C-102.0937616 163.49707886 -103.25881226 163.50831787 -104.45916748 163.51989746 C-115.41096254 163.43628754 -124.10589693 160.81269509 -132.05859375 153.14453125 C-139.76561722 144.63113913 -141.45758557 136.00260123 -141.234375 124.65234375 C-140.58409189 114.51876527 -136.2472472 108.97035902 -129 102 C-126.0713561 99.42729897 -123.90854394 97.57904355 -120 97 C-120.2165625 96.09121094 -120.433125 95.18242188 -120.65625 94.24609375 C-125.00311601 74.62482355 -123.52424291 56.38204679 -113.20947266 38.87792969 C-105.23720792 26.49951622 -92.81154468 16.93518579 -79 12 C-78.00685791 11.60071289 -78.00685791 11.60071289 -76.99365234 11.19335938 C-66.06226586 7.43795213 -53.98199606 8.88333566 -42.60253906 9.21240234 C-26.829218 9.63586443 -13.50729653 0 0 0 Z " fill="#FEFA70" transform="translate(149,13)"/>
<path d="M0 0 C2.0625 0.6875 2.0625 0.6875 4.125 1.375 C4.95128906 1.64570312 5.77757813 1.91640625 6.62890625 2.1953125 C8.46255605 2.81760551 10.26971845 3.51825243 12.0625 4.25 C18.53120642 5.90158462 24.64899804 3.63949672 30.80078125 1.62109375 C33 1 33 1 36 1 C36.268125 2.12535156 36.53625 3.25070313 36.8125 4.41015625 C38.82048449 12.42454189 41.06497309 19.95287268 45 27.25 C45.3196875 27.84433838 45.639375 28.43867676 45.96875 29.05102539 C47.65490926 32.0353743 49.4967679 34.63100213 51.76953125 37.17578125 C54 40 54 40 53.6875 43.9375 C51.67899121 49.68863992 48.64879163 53.57575642 43.25390625 56.4765625 C29.55843761 62.44325075 15.57501568 63.96816556 1 60 C-5.49414399 57.4132832 -11.62567308 54.5810378 -16 49 C-17.24122431 45.27632708 -17.45060151 42.92667034 -17 39 C-15.94140625 37.3984375 -15.94140625 37.3984375 -14.5 35.6875 C-6.44587163 25.85419363 -2.0978024 12.36829331 0 0 Z " fill="#DC9A6C" transform="translate(83,104)"/>
<path d="M0 0 C1 1 1 1 1.25 3.375 C1 6 1 6 -0.0625 7.6875 C-5.57052956 11.41874583 -12.09195858 11.33780822 -18.5 11.3125 C-19.31597656 11.32861328 -20.13195312 11.34472656 -20.97265625 11.36132812 C-26.40937098 11.36569146 -30.18149269 10.55207024 -35 8 C-37 6 -37 6 -37.375 3.5625 C-37 1 -37 1 -35.3125 -0.6875 C-23.94863419 -7.13726168 -11.16572548 -6.26369966 0 0 Z " fill="#F2D162" transform="translate(166,117)"/>
<path d="M0 0 C1 1 1 1 1.3125 3.375 C1 6 1 6 -0.625 7.6875 C-6.51328885 10.94155437 -11.86475739 11.33819485 -18.4375 11.3125 C-19.25798828 11.32861328 -20.07847656 11.34472656 -20.92382812 11.36132812 C-26.37879672 11.36568165 -30.16654638 10.5632896 -35 8 C-37 6 -37 6 -37.3125 3.5625 C-36.93349872 0.45468947 -36.42268784 -0.09277766 -34 -2 C-22.11804041 -6.27750545 -11.08594603 -6.21894533 0 0 Z " fill="#F2D162" transform="translate(70,117)"/>
<path d="M0 0 C0.79664062 0.40992188 1.59328125 0.81984375 2.4140625 1.2421875 C3.47367187 1.78101563 4.53328125 2.31984375 5.625 2.875 C6.66914062 3.40867188 7.71328125 3.94234375 8.7890625 4.4921875 C23.11305998 11.21854155 40.79518161 10.737223 55.73046875 6.22265625 C60.11261134 4.58393387 64.09952998 2.57917259 68 0 C67.93026452 2.92889034 67.62144867 5.17070896 65.83203125 7.55859375 C56.90371611 16.04600444 44.07891757 18.30570135 32.2109375 18.14453125 C21.09510474 17.64418355 10.29375432 15.04264469 1.75 7.4375 C-0.28435538 4.60393357 -0.15769399 3.38478877 0 0 Z " fill="#D8864B" transform="translate(67,148)"/>
<path d="M0 0 C3.23403836 6.19857353 4.4386189 12.3534263 2.3203125 19.1953125 C1.62451252 20.83209911 0.8226926 22.42317252 0 24 C-4.23970328 24.42397033 -6.98342177 24.43792242 -10.3125 21.75 C-13.13268524 18.86422906 -14.80327372 16.89823606 -15.22265625 12.8515625 C-14.89887876 8.35026562 -14.21842893 5.60060917 -10.875 2.4375 C-7.28833342 -0.25806929 -4.48517661 -0.5492053 0 0 Z " fill="#444440" transform="translate(150,84)"/>
<path d="M0 0 C4.66566172 0.11181324 8.05125014 0.36750009 12 3 C14.64140361 6.96210542 15.42682739 10.2546837 15 15 C12.87047893 19.42285146 10.52951313 22.05878009 6 24 C2.6875 24.1875 2.6875 24.1875 0 24 C-3.23403836 17.80142647 -4.4386189 11.6465737 -2.3203125 4.8046875 C-1.62451252 3.16790089 -0.8226926 1.57682748 0 0 Z " fill="#434340" transform="translate(52,84)"/>
<path d="M0 0 C2.97046873 1.79023785 5.42502414 3.85004828 7 7 C7.13415472 9.6723621 7.04318541 12.32250488 7 15 C6.34 15 5.68 15 5 15 C5 15.66 5 16.32 5 17 C-0.97813571 16.87545551 -4.04773563 14.98700956 -8.3984375 10.921875 C-10.51687323 8.37975212 -11 6.28190846 -11 3 C-7.48166826 -0.37759847 -4.77259862 -0.65828946 0 0 Z " fill="#FFFEF8" transform="translate(136,38)"/>
</svg>
